#
#
#

mtllib RightLung.mtl


#
#  Mesh
#
g  Mesh


#
#  Mesh_None
#
usemtl  Mesh_None

v 0.000000 11.293049 -8.858422
v 4.317299 8.156384 -7.342467
v -1.649028 6.217775 -7.342470
v 7.345079 5.956599 -3.247346
v 8.634624 11.293049 -4.044338
v -5.336495 11.293049 -7.342442
v -1.649028 16.368322 -7.342469
v 4.317299 14.429713 -7.342467
v 9.653849 8.156372 1.292220
v -2.805516 2.658412 -3.247350
v 2.668288 3.081060 -4.044356
v 0.000000 1.142406 1.292220
v -9.079001 11.293049 -3.247307
v -6.985565 6.217758 -4.044341
v -9.653849 8.156372 1.292220
v -2.805516 19.927685 -3.247349
v -6.985565 16.368340 -4.044340
v -5.966402 19.505089 1.292221
v 7.345079 16.629499 -3.247345
v 2.668288 19.505037 -4.044355
v 5.966402 19.505089 1.292221
v 5.966402 3.081009 1.292220
v -5.966402 3.081009 1.292220
v -9.653849 14.429726 1.292221
v 0.000000 21.443691 1.292221
v 9.653849 14.429726 1.292221
v -7.345079 5.956599 5.831787
v -8.326498 8.814044 14.127832
v -8.634624 11.293049 6.628778
v -2.668288 3.081060 6.628795
v -5.831814 4.208105 15.954767
v 6.985565 16.368340 6.628781
v 8.955859 12.441360 12.524545
v 9.079001 11.293049 5.831747
v 2.805516 2.658412 5.831789
v -0.696138 3.220859 17.805851
v 6.985565 6.217758 6.628780
v 4.775090 3.718212 17.034693
v 0.932703 18.322422 8.657287
v 5.737366 16.644367 10.865523
v -2.668288 19.505037 6.628796
v 2.805516 19.927685 5.831790
v 7.995855 8.060265 15.789618
v -7.345079 16.629499 5.831787
v -4.350448 17.110222 9.838502
v -8.206517 13.233920 10.777293
v 2.585702 8.445241 18.942129
v -3.648835 8.733189 18.307371
v -5.044641 14.038391 15.264150
v 0.327221 17.029316 14.018052
v 5.043109 13.572546 16.291147
v -0.248381 13.096313 17.887934
vn 0.102402 -0.315105 -0.943516
vn 0.700217 -0.268007 -0.661716
vn -0.268010 -0.194707 -0.943536
vn -0.268010 0.194707 -0.943536
vn 0.102402 0.315105 -0.943516
vn 0.904994 -0.267998 -0.330398
vn 0.024700 -0.943516 -0.330406
vn -0.889692 -0.315097 -0.330397
vn -0.574591 0.748788 -0.330395
vn 0.534576 0.777865 -0.330385
vn 0.802621 -0.583115 -0.125603
vn -0.306604 -0.943514 -0.125602
vn -0.992081 0.000000 -0.125598
vn -0.306604 0.943514 -0.125602
vn 0.802621 0.583115 -0.125603
vn -0.972596 -0.229699 -0.036000
vn -0.513672 -0.855053 -0.070896
vn 0.920534 0.387514 -0.049502
vn -0.073299 -0.996987 0.025400
vn 0.652481 -0.756578 -0.043099
vn 0.316611 0.948032 0.031501
vn 0.005300 0.867972 0.496584
vn 0.965838 -0.253110 -0.055602
vn -0.535900 0.786799 0.306200
vn -0.972292 0.233598 -0.009000
vn 0.889692 0.315097 0.330397
vn 0.794693 0.577295 0.187598
vn 0.574591 0.748788 0.330395
vn -0.024700 0.943516 0.330406
vn -0.303495 0.934183 0.187597
vn -0.534576 0.777865 0.330385
vn -0.904994 0.267998 0.330398
vn -0.982244 -0.000000 0.187608
vn -0.904994 -0.267998 0.330398
vn -0.534576 -0.777865 0.330385
vn -0.303495 -0.934183 0.187597
vn -0.024700 -0.943516 0.330406
vn 0.574591 -0.748788 0.330395
vn 0.794693 -0.577295 0.187598
vn 0.889692 -0.315097 0.330397
vn 0.306604 0.943514 0.125602
vn 0.303495 0.934183 -0.187597
vn 0.024700 0.943516 -0.330406
vn -0.802621 0.583115 0.125603
vn -0.794693 0.577295 -0.187598
vn -0.889692 0.315097 -0.330397
vn -0.802621 -0.583115 0.125603
vn -0.794693 -0.577295 -0.187598
vn -0.574591 -0.748788 -0.330395
vn 0.306604 -0.943514 0.125602
vn 0.303495 -0.934183 -0.187597
vn 0.534576 -0.777865 -0.330385
vn 0.992081 -0.000000 0.125598
vn 0.982244 0.000000 -0.187608
vn 0.904994 0.267998 -0.330398
vn 0.471306 0.583107 -0.661708
vn 0.187598 0.577295 -0.794693
vn -0.038499 0.748789 -0.661690
vn -0.408914 0.628421 -0.661722
vn -0.491092 0.356794 -0.794687
vn -0.724025 0.194707 -0.661723
vn -0.724025 -0.194707 -0.661723
vn -0.491092 -0.356794 -0.794687
vn -0.408914 -0.628421 -0.661722
vn 0.700217 0.268007 -0.661716
vn 0.607064 0.000000 -0.794653
vn 0.331308 0.000000 -0.943523
vn -0.038499 -0.748789 -0.661690
vn 0.187598 -0.577295 -0.794693
vn 0.471306 -0.583107 -0.661708
vn 0.493522 -0.119105 0.861539
vn -0.372690 -0.280092 0.884676
vn -0.784772 0.387786 0.483483
vn -0.173202 0.961710 0.212402
vn 0.616862 0.648460 0.446073
vn 0.154599 0.681296 0.715496
vn 0.345412 0.797027 0.495417
vn 0.213909 0.943840 0.251811
vn -0.232510 0.699230 0.676030
vn -0.363797 0.829793 0.423197
vn -0.632215 0.706117 0.318908
vn -0.385016 0.380916 0.840634
vn -0.643380 0.246492 0.724778
vn -0.665509 -0.065501 0.743510
vn -0.092304 0.166307 0.981744
vn -0.106899 -0.146698 0.983388
vn 0.160002 -0.304704 0.938912
vn 0.241197 0.351996 0.904391
vn 0.504212 0.193505 0.841621
vn 0.703513 0.319106 0.635012
vn -0.886752 -0.459175 0.053197
vn -0.205395 -0.977477 0.048499
vn 0.746100 0.641600 0.178000
vn 0.100898 -0.991982 0.076099
vn 0.806872 -0.589979 0.029699
vn 0.421786 0.639378 0.642878
vn -0.057801 0.814409 0.577406
vn 0.925822 -0.369309 0.080402
vn -0.611106 0.698207 0.372904
vn -0.994780 0.077398 0.066499
vt 0.181819 0.000000
vt 0.227273 0.078731
vt 0.136365 0.078731
vt 0.272728 0.157461
vt 0.318182 0.078731
vt 0.363637 0.157461
vt 0.909091 0.000000
vt 0.954545 0.078731
vt 0.863636 0.078731
vt 0.727273 0.000000
vt 0.772727 0.078731
vt 0.681818 0.078731
vt 0.545455 0.000000
vt 0.590909 0.078731
vt 0.500000 0.078731
vt 0.318182 0.236191
vt 0.090910 0.157461
vt 0.181819 0.157461
vt 0.136365 0.236191
vt 0.818182 0.157461
vt 0.909091 0.157461
vt 0.863636 0.236191
vt 0.636364 0.157461
vt 0.727273 0.157461
vt 0.681818 0.236191
vt 0.454546 0.157461
vt 0.545455 0.157461
vt 0.500000 0.236191
vt 0.227273 0.236191
vt 0.045455 0.236191
vt 0.772727 0.236191
vt 0.590909 0.236191
vt 0.409092 0.236191
vt 0.909091 0.314921
vt 0.818182 0.314921
vt 0.090910 0.314921
vt 0.000000 0.314921
vt 0.454546 0.314921
vt 0.363637 0.314921
vt 0.181819 0.314921
vt 0.272728 0.314921
vt 0.545455 0.314921
vt 0.636364 0.314921
vt 0.727273 0.314921
vt 0.954545 0.236191
vt 1.000000 0.157461
vt 0.409092 0.078731
vt 0.363637 0.000000
vt 0.227273 0.393651
vt 0.045455 0.393651
vt 0.772727 0.393651
vt 0.590909 0.393651
vt 0.409092 0.393651
vt 0.500000 0.393651
vt 0.454546 0.472382
vt 0.681818 0.393651
vt 0.636364 0.472382
vt 0.863636 0.393651
vt 0.818182 0.472382
vt 0.136365 0.393651
vt 0.090910 0.472382
vt 0.318182 0.393651
vt 0.272728 0.472382
f 1/1/1 2/2/1 3/3/1
f 4/4/2 2/5/2 5/6/2
f 1/7/3 3/8/3 6/9/3
f 1/10/4 6/11/4 7/12/4
f 1/13/5 7/14/5 8/15/5
f 4/4/6 5/6/6 9/16/6
f 10/17/7 11/18/7 12/19/7
f 13/20/8 14/21/8 15/22/8
f 16/23/9 17/24/9 18/25/9
f 19/26/10 20/27/10 21/28/10
f 4/4/11 9/16/11 22/29/11
f 10/17/12 12/19/12 23/30/12
f 13/20/13 15/22/13 24/31/13
f 16/23/14 18/25/14 25/32/14
f 19/26/15 21/28/15 26/33/15
f 27/34/16 28/35/16 29/35/16
f 30/36/17 31/37/17 27/37/17
f 32/38/18 33/39/18 34/39/18
f 35/40/19 36/36/19 30/36/19
f 37/41/20 38/40/20 35/40/20
f 32/38/21 39/42/21 40/38/21
f 41/43/22 39/42/22 42/42/22
f 37/41/23 33/39/23 43/41/23
f 44/44/24 45/43/24 41/43/24
f 29/35/25 46/44/25 44/44/25
f 26/33/26 32/38/26 34/39/26
f 26/33/27 21/28/27 32/38/27
f 21/28/28 42/42/28 32/38/28
f 25/32/29 41/43/29 42/42/29
f 25/32/30 18/25/30 41/43/30
f 18/25/31 44/44/31 41/43/31
f 24/31/32 29/35/32 44/44/32
f 24/31/33 15/22/33 29/35/33
f 15/22/34 27/34/34 29/35/34
f 23/30/35 30/36/35 27/37/35
f 23/30/36 12/19/36 30/36/36
f 12/19/37 35/40/37 30/36/37
f 22/29/38 37/41/38 35/40/38
f 22/29/39 9/16/39 37/41/39
f 9/16/40 34/39/40 37/41/40
f 21/28/41 25/32/41 42/42/41
f 21/28/42 20/27/42 25/32/42
f 20/27/43 16/23/43 25/32/43
f 18/25/44 24/31/44 44/44/44
f 18/25/45 17/24/45 24/31/45
f 17/24/46 13/20/46 24/31/46
f 15/22/47 23/45/47 27/34/47
f 15/22/48 14/21/48 23/45/48
f 14/21/49 10/46/49 23/45/49
f 12/19/50 22/29/50 35/40/50
f 12/19/51 11/18/51 22/29/51
f 11/18/52 4/4/52 22/29/52
f 9/16/53 26/33/53 34/39/53
f 9/16/54 5/6/54 26/33/54
f 5/6/55 19/26/55 26/33/55
f 8/15/56 20/27/56 19/26/56
f 8/15/57 7/14/57 20/27/57
f 7/14/58 16/23/58 20/27/58
f 7/12/59 17/24/59 16/23/59
f 7/12/60 6/11/60 17/24/60
f 6/11/61 13/20/61 17/24/61
f 6/9/62 14/21/62 13/20/62
f 6/9/63 3/8/63 14/21/63
f 3/8/64 10/46/64 14/21/64
f 5/6/65 8/47/65 19/26/65
f 5/6/66 2/5/66 8/47/66
f 2/5/67 1/48/67 8/47/67
f 3/3/68 11/18/68 10/17/68
f 3/3/69 2/2/69 11/18/69
f 2/2/70 4/4/70 11/18/70
f 38/40/71 43/41/71 47/49/71
f 31/37/72 36/36/72 48/50/72
f 46/44/73 28/35/73 49/51/73
f 39/42/74 45/43/74 50/52/74
f 33/39/75 40/38/75 51/53/75
f 51/53/76 50/54/76 52/55/76
f 51/53/77 40/38/77 50/54/77
f 40/38/78 39/42/78 50/54/78
f 50/52/79 49/56/79 52/57/79
f 50/52/80 45/43/80 49/56/80
f 45/43/81 46/44/81 49/56/81
f 49/51/82 48/58/82 52/59/82
f 49/51/83 28/35/83 48/58/83
f 28/35/84 31/34/84 48/58/84
f 48/50/85 47/60/85 52/61/85
f 48/50/86 36/36/86 47/60/86
f 36/36/87 38/40/87 47/60/87
f 47/49/88 51/62/88 52/63/88
f 47/49/89 43/41/89 51/62/89
f 43/41/90 33/39/90 51/62/90
f 27/34/91 31/34/91 28/35/91
f 30/36/92 36/36/92 31/37/92
f 32/38/93 40/38/93 33/39/93
f 35/40/94 38/40/94 36/36/94
f 37/41/95 43/41/95 38/40/95
f 32/38/96 42/42/96 39/42/96
f 41/43/97 45/43/97 39/42/97
f 37/41/98 34/39/98 33/39/98
f 44/44/99 46/44/99 45/43/99
f 29/35/100 28/35/100 46/44/100
